<?xml version="1.0" encoding="UTF-8" standalone="no"?>
<!-- Created with Inkscape (http://www.inkscape.org/) -->

<svg
   width="1122.5197"
   height="793.70081"
   viewBox="0 0 297 210"
   version="1.1"
   id="svg5"
   sodipodi:docname="logo web creator new.svg"
   inkscape:version="1.1.1 (3bf5ae0d25, 2021-09-20)"
   inkscape:export-filename="E:\documents\inkscape save\created logos\logo web creator for view.png"
   inkscape:export-xdpi="96"
   inkscape:export-ydpi="96"
   xmlns:inkscape="http://www.inkscape.org/namespaces/inkscape"
   xmlns:sodipodi="http://sodipodi.sourceforge.net/DTD/sodipodi-0.dtd"
   xmlns="http://www.w3.org/2000/svg"
   xmlns:svg="http://www.w3.org/2000/svg">
  <sodipodi:namedview
     id="namedview7"
     pagecolor="#ffffff"
     bordercolor="#666666"
     borderopacity="1.0"
     inkscape:pageshadow="2"
     inkscape:pageopacity="0.0"
     inkscape:pagecheckerboard="0"
     inkscape:document-units="mm"
     showgrid="false"
     units="px"
     inkscape:showpageshadow="false"
     inkscape:object-nodes="false"
     inkscape:zoom="0.54929737"
     inkscape:cx="1054.9841"
     inkscape:cy="374.1143"
     inkscape:window-width="1366"
     inkscape:window-height="705"
     inkscape:window-x="-8"
     inkscape:window-y="-8"
     inkscape:window-maximized="1"
     inkscape:current-layer="layer1"
     showguides="true"
     inkscape:guide-bbox="true"
     inkscape:snap-text-baseline="false"
     showborder="false" />
  <defs
     id="defs2">
    <linearGradient
       id="linearGradient20871"
       inkscape:swatch="solid">
      <stop
         style="stop-color:#ff0000;stop-opacity:1;"
         offset="0"
         id="stop20869" />
    </linearGradient>
    <inkscape:path-effect
       effect="offset"
       id="path-effect11560"
       is_visible="true"
       lpeversion="1"
       linejoin_type="miter"
       unit="px"
       offset="3"
       miter_limit="4"
       attempt_force_join="false"
       update_on_knot_move="true" />
    <inkscape:path-effect
       effect="offset"
       id="path-effect11439"
       is_visible="true"
       lpeversion="1"
       linejoin_type="miter"
       unit="px"
       offset="3"
       miter_limit="4"
       attempt_force_join="false"
       update_on_knot_move="true" />
    <inkscape:path-effect
       effect="offset"
       id="path-effect11434"
       is_visible="true"
       lpeversion="1"
       linejoin_type="miter"
       unit="px"
       offset="3"
       miter_limit="4"
       attempt_force_join="false"
       update_on_knot_move="true" />
    <inkscape:path-effect
       effect="offset"
       id="path-effect11429"
       is_visible="true"
       lpeversion="1"
       linejoin_type="miter"
       unit="px"
       offset="3"
       miter_limit="4"
       attempt_force_join="false"
       update_on_knot_move="true" />
    <inkscape:path-effect
       effect="offset"
       id="path-effect11387"
       is_visible="true"
       lpeversion="1"
       linejoin_type="miter"
       unit="px"
       offset="3"
       miter_limit="4"
       attempt_force_join="false"
       update_on_knot_move="true" />
    <inkscape:path-effect
       effect="offset"
       id="path-effect11266"
       is_visible="true"
       lpeversion="1"
       linejoin_type="miter"
       unit="px"
       offset="3"
       miter_limit="4"
       attempt_force_join="false"
       update_on_knot_move="true" />
    <rect
       x="160.91165"
       y="-109.41992"
       width="480.16037"
       height="130.01662"
       id="rect6546" />
    <rect
       x="235.57466"
       y="-78.524887"
       width="230.42549"
       height="73.375714"
       id="rect3498" />
    <rect
       x="260.03323"
       y="-93.972405"
       width="208.5415"
       height="78.524886"
       id="rect25209" />
    <rect
       x="249.73488"
       y="102.98346"
       width="299.93932"
       height="104.27075"
       id="rect15265" />
    <rect
       x="141.60225"
       y="100.40887"
       width="233.00007"
       height="82.386766"
       id="rect13331" />
    <linearGradient
       id="linearGradient894"
       inkscape:swatch="solid">
      <stop
         style="stop-color:#000000;stop-opacity:1;"
         offset="0"
         id="stop892" />
    </linearGradient>
  </defs>
  <g
     inkscape:label="Layer 1"
     inkscape:groupmode="layer"
     id="layer1">
    <text
       xml:space="preserve"
       transform="scale(0.26458333)"
       id="text13329"
       style="fill:black;fill-opacity:1;line-height:1.25;stroke:none;font-family:sans-serif;font-style:normal;font-weight:normal;font-size:40px;white-space:pre;shape-inside:url(#rect13331)" />
    <text
       xml:space="preserve"
       transform="scale(0.26458333)"
       id="text15263"
       style="fill:black;fill-opacity:1;line-height:1.25;stroke:none;font-family:sans-serif;font-style:normal;font-weight:normal;font-size:40px;white-space:pre;shape-inside:url(#rect15265)" />
    <g
       id="g1187"
       transform="matrix(2.4571767,0,0,2.4571767,-363.91551,-29.118098)">
      <path
         style="fill:#000000;fill-opacity:1;stroke:#000000;stroke-width:5.29167;stroke-linecap:square;stroke-linejoin:miter;stroke-miterlimit:4;stroke-dasharray:none;stroke-opacity:1;paint-order:stroke markers fill"
         d="m 192.53397,23.534675 1.67122,2.894914 h 32.39905 l 1.67122,-2.894914 z"
         id="path25519" />
      <path
         id="path25521"
         style="fill:#f0f0f0;fill-opacity:1;stroke:#000000;stroke-width:1.85208;stroke-linecap:square;stroke-miterlimit:4;stroke-dasharray:none;paint-order:stroke markers fill"
         d="m 239.18067,77.067872 3.55707,0.962911 -0.96291,-3.557073 -54.61258,-54.612588 -2.59417,2.594162 z"
         sodipodi:nodetypes="cccccc" />
      <path
         style="fill:none;stroke:#000000;stroke-width:0.926042;stroke-linecap:butt;stroke-linejoin:miter;stroke-miterlimit:4;stroke-dasharray:none;stroke-opacity:1"
         d="M 242.73774,78.030783 185.84652,21.139563"
         id="path25523"
         sodipodi:nodetypes="cc" />
      <rect
         style="fill:#000000;fill-opacity:1;stroke:#000000;stroke-width:1.85208;stroke-linecap:square;stroke-linejoin:miter;stroke-miterlimit:4;stroke-dasharray:none;stroke-opacity:1;paint-order:stroke markers fill"
         id="rect25525"
         width="3.8897724"
         height="0.68540144"
         x="114.52052"
         y="-144.09071"
         ry="0.34270072"
         rx="0"
         transform="matrix(0.70710678,-0.70710678,-0.70710678,-0.70710678,0,0)" />
      <path
         id="path25527"
         style="fill:#ffd700;fill-opacity:1;stroke:#ffd700;stroke-width:1.85208;stroke-linecap:square;stroke-opacity:1;paint-order:stroke markers fill"
         d="m 183.91982,26.919674 1.9267,-5.780111 5.78012,-1.926703 -0.55628,-0.556277 -0.55628,-0.556278 -5.78011,1.926703 -1.9267,5.78011 0.55627,0.556278 z"
         sodipodi:nodetypes="ccccccccc" />
      <rect
         style="fill:#000000;fill-opacity:1;stroke:#000000;stroke-width:1.85208;stroke-linecap:square;stroke-linejoin:miter;stroke-miterlimit:4;stroke-dasharray:none;stroke-opacity:1;paint-order:stroke markers fill"
         id="rect25529"
         width="3.8897724"
         height="0.68540144"
         x="114.52052"
         y="-138.72226"
         ry="0.34270072"
         rx="0"
         transform="matrix(0.70710678,-0.70710678,-0.70710678,-0.70710678,0,0)" />
      <rect
         style="fill:#000000;fill-opacity:1;stroke:#000000;stroke-width:1.85208;stroke-linecap:square;stroke-linejoin:miter;stroke-miterlimit:4;stroke-dasharray:none;stroke-opacity:1;paint-order:stroke markers fill"
         id="rect25531"
         width="3.8897724"
         height="0.68540144"
         x="114.52052"
         y="-142.30122"
         ry="0.34270072"
         rx="0"
         transform="matrix(0.70710678,-0.70710678,-0.70710678,-0.70710678,0,0)" />
      <rect
         style="fill:#020000;fill-opacity:1;stroke:#000000;stroke-width:1.85208;stroke-linecap:square;stroke-linejoin:miter;stroke-miterlimit:4;stroke-dasharray:none;stroke-opacity:1;paint-order:stroke markers fill"
         id="rect25533"
         width="3.8897724"
         height="0.68540144"
         x="114.52052"
         y="-140.51176"
         ry="0.34270072"
         rx="0"
         transform="matrix(0.70710678,-0.70710678,-0.70710678,-0.70710678,0,0)" />
      <path
         style="fill:#ffffff;fill-rule:evenodd;stroke:#000000;stroke-width:0.881818;stroke-miterlimit:4;stroke-dasharray:none;stroke-opacity:1"
         id="path25535"
         sodipodi:type="arc"
         sodipodi:cx="116.4654"
         sodipodi:cy="-135.78149"
         sodipodi:rx="1.1707996"
         sodipodi:ry="1.1707995"
         sodipodi:start="1.4195653"
         sodipodi:end="1.4147059"
         sodipodi:open="true"
         sodipodi:arc-type="arc"
         transform="matrix(0.70710678,-0.70710678,-0.70710678,-0.70710678,0,0)"
         d="m 116.64179,-134.62406 a 1.1707996,1.1707995 0 0 1 -1.33361,-0.97964 1.1707996,1.1707995 0 0 1 0.97802,-1.3348 1.1707996,1.1707995 0 0 1 1.33599,0.9764 1.1707996,1.1707995 0 0 1 -0.97478,1.33717" />
      <path
         style="fill:#ffffff;fill-rule:evenodd;stroke:#000000;stroke-width:0.264583;stroke-miterlimit:4;stroke-dasharray:none;stroke-opacity:1"
         id="path25537"
         sodipodi:type="arc"
         sodipodi:cx="116.4654"
         sodipodi:cy="-135.78149"
         sodipodi:rx="0.319309"
         sodipodi:ry="0.31930891"
         sodipodi:start="1.4195653"
         sodipodi:end="1.4147059"
         sodipodi:open="true"
         sodipodi:arc-type="arc"
         transform="matrix(0.70710678,-0.70710678,-0.70710678,-0.70710678,0,0)"
         d="m 116.51351,-135.46583 a 0.319309,0.31930891 0 0 1 -0.36372,-0.26718 0.319309,0.31930891 0 0 1 0.26674,-0.36403 0.319309,0.31930891 0 0 1 0.36436,0.26629 0.319309,0.31930891 0 0 1 -0.26585,0.36468" />
      <path
         id="path25539"
         style="fill:#f0f0f0;fill-opacity:1;stroke:#000000;stroke-width:1.85208;stroke-linecap:square;stroke-miterlimit:4;stroke-dasharray:none;paint-order:stroke markers fill"
         d="m 181.62877,77.067869 -3.55707,0.962911 0.96291,-3.557074 54.61259,-54.612587 2.59416,2.594162 z"
         sodipodi:nodetypes="cccccc" />
      <path
         style="fill:none;stroke:#000000;stroke-width:0.926042;stroke-linecap:butt;stroke-linejoin:miter;stroke-miterlimit:4;stroke-dasharray:none;stroke-opacity:1"
         d="M 178.0717,78.03078 234.96292,21.13956"
         id="path25541"
         sodipodi:nodetypes="cc" />
      <rect
         style="fill:#000100;fill-opacity:1;stroke:#000000;stroke-width:1.85208;stroke-linecap:square;stroke-linejoin:miter;stroke-miterlimit:4;stroke-dasharray:none;stroke-opacity:1;paint-order:stroke markers fill"
         id="rect25543"
         width="3.8897724"
         height="0.68540144"
         x="-183.03668"
         y="153.46651"
         ry="0.34270072"
         rx="0"
         transform="rotate(-135)" />
      <path
         id="path25545"
         style="fill:#ffd700;fill-opacity:1;stroke:#ffd700;stroke-width:1.85208;stroke-linecap:square;stroke-opacity:1;paint-order:stroke markers fill"
         d="m 236.88962,26.919671 -1.9267,-5.780111 -5.78011,-1.926703 0.55627,-0.556277 0.55628,-0.556278 5.78011,1.926702 1.92671,5.780111 -0.55628,0.556278 z"
         sodipodi:nodetypes="ccccccccc" />
      <rect
         style="fill:#000000;fill-opacity:1;stroke:#000000;stroke-width:1.85208;stroke-linecap:square;stroke-linejoin:miter;stroke-miterlimit:4;stroke-dasharray:none;stroke-opacity:1;paint-order:stroke markers fill"
         id="rect25547"
         width="3.8897724"
         height="0.68540144"
         x="-183.03668"
         y="158.83495"
         ry="0.34270072"
         rx="0"
         transform="rotate(-135)" />
      <rect
         style="fill:#000000;fill-opacity:1;stroke:#000000;stroke-width:1.85208;stroke-linecap:square;stroke-linejoin:miter;stroke-miterlimit:4;stroke-dasharray:none;stroke-opacity:1;paint-order:stroke markers fill"
         id="rect25549"
         width="3.8897724"
         height="0.68540144"
         x="-183.03668"
         y="155.25598"
         ry="0.34270072"
         rx="0"
         transform="rotate(-135)" />
      <rect
         style="fill:#000000;fill-opacity:1;stroke:#000000;stroke-width:1.85208;stroke-linecap:square;stroke-linejoin:miter;stroke-miterlimit:4;stroke-dasharray:none;stroke-opacity:1;paint-order:stroke markers fill"
         id="rect25551"
         width="3.8897724"
         height="0.68540144"
         x="-183.03668"
         y="157.04546"
         ry="0.34270072"
         rx="0"
         transform="rotate(-135)" />
      <path
         style="fill:#ffffff;fill-rule:evenodd;stroke:#000000;stroke-width:0.881818;stroke-miterlimit:4;stroke-dasharray:none;stroke-opacity:1"
         id="path25553"
         sodipodi:type="arc"
         sodipodi:cx="-181.0918"
         sodipodi:cy="161.77571"
         sodipodi:rx="1.1707996"
         sodipodi:ry="1.1707995"
         sodipodi:start="1.4195653"
         sodipodi:end="1.4147059"
         sodipodi:open="true"
         sodipodi:arc-type="arc"
         transform="rotate(-135)"
         d="m -180.91541,162.93315 a 1.1707996,1.1707995 0 0 1 -1.33361,-0.97965 1.1707996,1.1707995 0 0 1 0.97802,-1.33479 1.1707996,1.1707995 0 0 1 1.33599,0.9764 1.1707996,1.1707995 0 0 1 -0.97478,1.33717" />
      <path
         style="fill:#ffffff;fill-rule:evenodd;stroke:#000000;stroke-width:0.264583;stroke-miterlimit:4;stroke-dasharray:none;stroke-opacity:1"
         id="path25555"
         sodipodi:type="arc"
         sodipodi:cx="-181.0918"
         sodipodi:cy="161.77571"
         sodipodi:rx="0.319309"
         sodipodi:ry="0.31930891"
         sodipodi:start="1.4195653"
         sodipodi:end="1.4147059"
         sodipodi:open="true"
         sodipodi:arc-type="arc"
         transform="rotate(-135)"
         d="m -181.04369,162.09138 a 0.319309,0.31930891 0 0 1 -0.36371,-0.26718 0.319309,0.31930891 0 0 1 0.26673,-0.36404 0.319309,0.31930891 0 0 1 0.36436,0.2663 0.319309,0.31930891 0 0 1 -0.26585,0.36468" />
      <path
         style="fill:#ff0000;fill-opacity:1;stroke:#000000;stroke-width:5.29167;stroke-linecap:square;stroke-linejoin:miter;stroke-miterlimit:4;stroke-dasharray:none;stroke-opacity:1;paint-order:stroke markers fill"
         d="m 181.01478,32.737392 29.38994,58.779882 29.38994,-58.779882 h -8.74572 l -1.67122,2.894914 h 6.31744 L 210.40472,86.213714 185.11376,35.632306 h 5.75468 l -1.67121,-2.894914 z"
         id="path25557" />
      <path
         style="fill:#ff2a2a;fill-opacity:1;stroke:#ffffff;stroke-width:5.29167;stroke-linecap:square;stroke-linejoin:miter;stroke-miterlimit:4;stroke-dasharray:none;stroke-opacity:1;paint-order:stroke markers fill"
         d="m 192.53397,32.721788 1.67122,2.894914 h 32.39905 l 1.67122,-2.894914 z"
         id="path25559" />
      <path
         sodipodi:type="star"
         style="fill:#000000;fill-opacity:1;fill-rule:evenodd;stroke-width:0.707255"
         id="path25561"
         inkscape:flatsided="true"
         sodipodi:sides="3"
         sodipodi:cx="851.54443"
         sodipodi:cy="180.22105"
         sodipodi:r1="74.640808"
         sodipodi:r2="37.320404"
         sodipodi:arg1="0.52359878"
         sodipodi:arg2="1.5707963"
         inkscape:rounded="0"
         inkscape:randomized="0"
         transform="matrix(0.37409865,0,0,-0.38474597,-108.1569,121.81431)"
         inkscape:transform-center-y="7.179434"
         d="m 916.18527,217.54146 -129.28167,0 64.64083,-111.96121 z" />
      <g
         id="g25583"
         transform="translate(-151.34179,52.157186)"
         style="fill:#007bff;fill-opacity:1">
        <path
           d="m 343.71549,2.741099 -4.39873,-11.4237311 h 2.74516 l 2.89646,7.662654 3.03696,-7.662654 h 1.85892 l 3.09101,7.662654 2.76677,-7.662654 h 2.37768 L 353.68019,2.741099 h -1.79408 l -3.14504,-7.9004235 -3.18827,7.9004235 z"
           id="path25563"
           style="font-size:40px;line-height:1.25;font-family:'BankGothic Md BT';-inkscape-font-specification:'BankGothic Md BT, Normal';white-space:pre;opacity:1;fill:#007bff;fill-opacity:1;stroke-width:0.553354" />
        <path
           id="path25565"
           style="font-size:40px;line-height:1.25;font-family:'BankGothic Md BT';-inkscape-font-specification:'BankGothic Md BT, Normal';white-space:pre;opacity:1;fill:#007bff;fill-opacity:1;stroke-width:0.553355"
           d="m 358.93934,-8.682674 -0.65424,1.6960204 v 9.7275715 h 11.31766 V 0.59014486 h -8.65889 V -2.2412068 h 5.2741 v -1.9456178 h -5.2741 v -2.5502319 h 9.03563 V -8.682674 Z" />
        <path
           d="m 379.07457,-6.823709 h -6.06311 v 2.7235386 h 6.06311 q 0.6917,0 0.95108,-0.1837306 0.27019,-0.1837312 0.27019,-0.637654 v -1.0807693 q 0,-0.4431153 -0.27019,-0.6268465 -0.25938,-0.1945382 -0.95108,-0.1945382 z m 0,4.6040769 h -6.06311 v 2.90726976 h 6.06311 q 0.75654,0 1.01592,-0.22696196 0.2702,-0.22696141 0.2702,-0.79976899 V -1.2037087 q 0,-0.5728076 -0.2702,-0.7889614 -0.25938,-0.226962 -1.01592,-0.226962 z M 370.39599,2.741099 V -8.6826321 h 9.79178 q 1.35096,0 1.95619,0.5295768 0.60523,0.5295768 0.60523,1.6860001 v 1.3941922 q 0,0.8213846 -0.50797,1.3185388 -0.50796,0.486346 -1.45903,0.6052308 0.9835,0.1296923 1.51308,0.7024999 0.54038,0.5728076 0.54038,1.49146186 v 1.45903811 q 0,1.13480813 -0.83219,1.68600003 -0.83219,0.5511925 -2.529,0.5511925 z"
           id="path25567"
           style="font-size:40px;line-height:1.25;font-family:'BankGothic Md BT';-inkscape-font-specification:'BankGothic Md BT, Normal';white-space:pre;opacity:1;fill:#007bff;fill-opacity:1;stroke-width:0.553354" />
        <path
           d="m 329.25921,5.8711782 h -7.1655 v 7.2303468 h 7.1655 v -2.453346 l 2.65869,0.551192 v 1.350962 q 0,1.567115 -0.59442,2.139922 -0.58362,0.562001 -2.23719,0.562001 h -6.81966 q -1.66439,0 -2.248,-0.562001 -0.58361,-0.572807 -0.58361,-2.139922 V 6.5304472 q 0,-1.556307 0.58361,-2.129115 0.58361,-0.572808 2.248,-0.572808 h 6.81966 q 1.65357,0 2.23719,0.572808 0.59442,0.572808 0.59442,2.129115 v 1.08077 l -2.65869,0.4215 z"
           id="path25569"
           style="font-size:40px;line-height:1.25;font-family:'BankGothic Md BT';-inkscape-font-specification:'BankGothic Md BT, Normal';white-space:pre;opacity:1;fill:#007bff;fill-opacity:1;stroke-width:0.553354" />
        <path
           d="m 341.90236,5.8063322 h -5.97666 v 3.177462 h 5.97666 q 0.69169,0 0.94027,-0.194538 0.25938,-0.205347 0.25938,-0.713308 v -1.372578 q 0,-0.497153 -0.25938,-0.691692 -0.24858,-0.205346 -0.94027,-0.205346 z m -8.59212,9.4459238 V 3.8285242 h 9.77016 q 1.36176,0 1.96699,0.529577 0.61605,0.518769 0.61605,1.686 v 2.680308 q 0,1.156423 -0.61605,1.6859998 -0.60523,0.529577 -1.96699,0.529577 h -1.49147 l 5.27416,4.31227 h -3.81512 l -4.60407,-4.31227 h -2.5182 v 4.31227 z"
           id="path25571"
           style="font-size:40px;line-height:1.25;font-family:'BankGothic Md BT';-inkscape-font-specification:'BankGothic Md BT, Normal';white-space:pre;opacity:1;fill:#007bff;fill-opacity:1;stroke-width:0.553354" />
        <path
           id="path25573"
           style="font-size:40px;line-height:1.25;font-family:'BankGothic Md BT';-inkscape-font-specification:'BankGothic Md BT, Normal';white-space:pre;opacity:1;fill:#007bff;fill-opacity:1;stroke-width:2.09142"
           d="m 1310.7363,14.470703 v 39.099609 l 4.9844,4.076172 h 38.1016 l 4.5996,-8.128906 h -37.6367 V 38.814453 h 19.9336 v -7.351562 h -19.9336 v -9.640625 h 34.1484 v -7.351563 z"
           transform="scale(0.26458333)" />
        <path
           d="m 364.22272,10.691409 h 5.00396 l -2.46415,-4.6473078 z m -5.11204,4.560847 6.463,-11.4237318 h 2.56142 l 6.54947,11.4237318 h -2.98292 l -1.37258,-2.496578 h -7.24116 l -1.32934,2.496578 z"
           id="path25575"
           style="font-size:40px;line-height:1.25;font-family:'BankGothic Md BT';-inkscape-font-specification:'BankGothic Md BT, Normal';white-space:pre;opacity:1;fill:#007bff;fill-opacity:1;stroke-width:0.553354" />
        <path
           id="path25577"
           style="font-size:40px;line-height:1.25;font-family:'BankGothic Md BT';-inkscape-font-specification:'BankGothic Md BT, Normal';white-space:pre;opacity:1;fill:#007bff;fill-opacity:1;stroke-width:2.09142"
           d="m 1399.0625,14.470703 v 7.71875 h 19.8105 v 35.457031 h 10.0489 V 22.189453 h 17.4668 c 0.2681,-2.833883 1.0271,-5.351249 2.4258,-7.085937 v -0.632813 z"
           transform="scale(0.26458333)" />
        <path
           d="m 383.45249,6.5304472 q 0,-1.556307 0.58362,-2.129115 0.58361,-0.572808 2.248,-0.572808 h 8.40838 q 1.66439,0 2.248,0.572808 0.58362,0.572808 0.58362,2.129115 v 6.0198858 q 0,1.567115 -0.58362,2.139922 -0.58361,0.562001 -2.248,0.562001 h -8.40838 q -1.66439,0 -2.248,-0.562001 -0.58362,-0.572807 -0.58362,-2.139922 z m 2.65869,6.5710778 h 8.76504 V 5.8711782 h -8.76504 z"
           id="path25579"
           style="font-size:40px;line-height:1.25;font-family:'BankGothic Md BT';-inkscape-font-specification:'BankGothic Md BT, Normal';white-space:pre;opacity:1;fill:#007bff;fill-opacity:1;stroke-width:0.553354" />
        <path
           id="path25581"
           style="font-size:40px;line-height:1.25;font-family:'BankGothic Md BT';-inkscape-font-specification:'BankGothic Md BT, Normal';white-space:pre;opacity:1;fill:#007bff;fill-opacity:1;stroke-width:2.09142"
           d="m 1503.5898,14.470703 v 1.621094 c 1.3064,2.214403 1.8575,5.29061 1.8575,8.59375 v 22.75 c 0,3.324013 -0.5501,6.406296 -1.8575,8.623047 v 1.58789 h 9.8868 V 41.347656 h 9.5175 l 17.4004,16.298828 h 14.42 l -19.9336,-16.298828 h 5.6367 c 3.4312,0 5.9086,-0.667586 7.4336,-2.001953 1.5522,-1.334367 2.3281,-3.457272 2.3281,-6.371094 V 22.84375 c 0,-2.941054 -0.7759,-5.065912 -2.3281,-6.373047 -1.525,-1.334367 -4.0024,-2 -7.4336,-2 z m 9.8868,7.474609 h 22.5879 c 1.7428,10e-7 2.9283,0.257984 3.5546,0.775391 0.6536,0.490177 0.9805,1.362566 0.9805,2.615235 v 5.1875 c 0,1.279901 -0.3269,2.177902 -0.9805,2.695312 -0.6263,0.490174 -1.8118,0.736328 -3.5546,0.736328 h -22.5879 z"
           transform="scale(0.26458333)" />
      </g>
    </g>
  </g>
</svg>
