<svg width="32" height="24" viewBox="0 0 32 24" fill="none" xmlns="http://www.w3.org/2000/svg">
<path d="M0 2.82075V2C0 1.46957 0.210714 0.960859 0.585786 0.585786C0.960859 0.210714 1.46957 0 2 0L30 0C30.5304 0 31.0391 0.210714 31.4142 0.585786C31.7893 0.960859 32 1.46957 32 2V2.82075L16 12.8208L0 2.82075ZM16.53 14.8483C16.371 14.9475 16.1874 15.0001 16 15.0001C15.8126 15.0001 15.629 14.9475 15.47 14.8483L0 5.17925V22C0 22.5304 0.210714 23.0391 0.585786 23.4142C0.960859 23.7893 1.46957 24 2 24H30C30.5304 24 31.0391 23.7893 31.4142 23.4142C31.7893 23.0391 32 22.5304 32 22V5.17925L16.53 14.8483Z" fill="#405296"/>
</svg>
