<svg width="26" height="32" viewBox="0 0 26 32" fill="none" xmlns="http://www.w3.org/2000/svg">
<path d="M12.8003 0C9.40664 0.00381147 6.15304 1.35364 3.75334 3.75334C1.35364 6.15304 0.00381147 9.40664 0 12.8003C0 18.0085 3.7809 22.3334 7.7858 26.9111C9.05304 28.3607 10.3651 29.86 11.5331 31.3768C11.6826 31.5707 11.8745 31.7277 12.0942 31.8358C12.3139 31.9438 12.5555 32 12.8003 32C13.0452 32 13.2867 31.9438 13.5064 31.8358C13.7261 31.7277 13.9181 31.5707 14.0676 31.3768C15.2356 29.86 16.5476 28.3607 17.8149 26.9111C21.8198 22.3334 25.6007 18.0085 25.6007 12.8003C25.5969 9.40664 24.247 6.15304 21.8473 3.75334C19.4476 1.35364 16.194 0.00381147 12.8003 0ZM12.8003 17.6005C11.851 17.6005 10.9229 17.3189 10.1335 16.7915C9.34415 16.264 8.72891 15.5144 8.3656 14.6373C8.00229 13.7602 7.90723 12.795 8.09244 11.8639C8.27766 10.9327 8.73482 10.0774 9.40613 9.40613C10.0774 8.73482 10.9327 8.27766 11.8639 8.09244C12.795 7.90723 13.7602 8.00229 14.6373 8.3656C15.5144 8.72891 16.264 9.34415 16.7915 10.1335C17.3189 10.9229 17.6005 11.851 17.6005 12.8003C17.6005 14.0734 17.0947 15.2943 16.1945 16.1945C15.2943 17.0947 14.0734 17.6005 12.8003 17.6005Z" fill="#405296"/>
</svg>
