<svg width="40" height="33" viewBox="0 0 40 33" fill="none" xmlns="http://www.w3.org/2000/svg">
<path d="M1.6116 4.20585H11.8292C12.2566 4.20585 12.6665 4.01063 12.9687 3.66314C13.271 3.31565 13.4408 2.84435 13.4408 2.35292C13.4408 1.8615 13.271 1.3902 12.9687 1.04271C12.6665 0.695219 12.2566 0.5 11.8292 0.5H1.6116C1.18418 0.5 0.774257 0.695219 0.472023 1.04271C0.169789 1.3902 0 1.8615 0 2.35292C0 2.84435 0.169789 3.31565 0.472023 3.66314C0.774257 4.01063 1.18418 4.20585 1.6116 4.20585ZM22.3127 4.20585H38.3884C38.8158 4.20585 39.2257 4.01063 39.528 3.66314C39.8302 3.31565 40 2.84435 40 2.35292C40 1.8615 39.8302 1.3902 39.528 1.04271C39.2257 0.695219 38.8158 0.5 38.3884 0.5H22.2724C21.8449 0.5 21.435 0.695219 21.1328 1.04271C20.8305 1.3902 20.6608 1.8615 20.6608 2.35292C20.6608 2.84435 20.8305 3.31565 21.1328 3.66314C21.435 4.01063 21.8449 4.20585 22.2724 4.20585H22.3127ZM1.6116 18.3529H38.3884C38.8158 18.3529 39.2257 18.1577 39.528 17.8102C39.8302 17.4627 40 16.9914 40 16.5C40 16.0086 39.8302 15.5373 39.528 15.1898C39.2257 14.8423 38.8158 14.6471 38.3884 14.6471H1.6116C1.18418 14.6471 0.774257 14.8423 0.472023 15.1898C0.169789 15.5373 0 16.0086 0 16.5C0 16.9914 0.169789 17.4627 0.472023 17.8102C0.774257 18.1577 1.18418 18.3529 1.6116 18.3529ZM18.4448 32.5H38.3884C38.8158 32.5 39.2257 32.3048 39.528 31.9573C39.8302 31.6098 40 31.1385 40 30.6471C40 30.1556 39.8302 29.6843 39.528 29.3369C39.2257 28.9894 38.8158 28.7942 38.3884 28.7942H18.4448C18.0174 28.7942 17.6075 28.9894 17.3052 29.3369C17.003 29.6843 16.8332 30.1556 16.8332 30.6471C16.8332 31.1385 17.003 31.6098 17.3052 31.9573C17.6075 32.3048 18.0174 32.5 18.4448 32.5Z" fill="#677097"/>
</svg>
