<svg width="32" height="32" viewBox="0 0 32 32" fill="none" xmlns="http://www.w3.org/2000/svg">
<path d="M24.152 20.1404L21.482 21.6446C21.1615 21.8249 20.7909 21.8955 20.4266 21.8455C20.0623 21.7954 19.7244 21.6276 19.4644 21.3675L10.5529 12.4559C10.293 12.1958 10.1252 11.8579 10.0752 11.4937C10.0252 11.1295 10.0956 10.7589 10.2758 10.4384L11.78 7.76834C12.0507 7.28779 12.1567 6.73182 12.0818 6.18535C12.0069 5.63889 11.7551 5.13198 11.365 4.74205L7.36313 0.740208C7.12857 0.505541 6.85008 0.319386 6.54357 0.192378C6.23705 0.065371 5.90851 0 5.57673 0C5.24494 0 4.9164 0.065371 4.60988 0.192378C4.30337 0.319386 4.02488 0.505541 3.79032 0.740208L1.97328 2.55598C0.910722 3.61851 0.233896 5.00578 0.0504188 6.4972C-0.133059 7.98862 0.187345 9.49857 0.960684 10.787L1.8724 12.3065C6.52833 20.0662 13.1 26.4994 20.9571 30.989L21.1372 31.0924C23.8213 32.626 27.1374 32.1791 29.2865 30.0313L31.1839 28.1338C31.4186 27.8993 31.6048 27.6208 31.7318 27.3143C31.8588 27.0078 31.9242 26.6792 31.9242 26.3474C31.9242 26.0156 31.8588 25.6871 31.7318 25.3806C31.6048 25.0741 31.4186 24.7956 31.1839 24.561L27.1795 20.5566C26.7897 20.166 26.2826 19.9138 25.7359 19.8386C25.1891 19.7635 24.6328 19.8694 24.152 20.1404Z" fill="#405296"/>
</svg>
