<svg width="32" height="32" viewBox="0 0 32 32" fill="none" xmlns="http://www.w3.org/2000/svg">
<path d="M32 7.07798C30.7963 7.60298 29.5232 7.9519 28.22 8.11398C29.5933 7.29923 30.6202 6.00911 31.106 4.48798C29.82 5.25065 28.4131 5.78773 26.946 6.07598C26.0465 5.11554 24.8789 4.44782 23.595 4.15957C22.311 3.87132 20.9701 3.97587 19.7464 4.45963C18.5226 4.94339 17.4726 5.784 16.7328 6.87225C15.9931 7.9605 15.5977 9.24609 15.598 10.562C15.598 11.082 15.642 11.582 15.75 12.058C13.1402 11.93 10.5867 11.2527 8.2566 10.0702C5.92649 8.88775 3.87219 7.22681 2.228 5.19598C1.38564 6.6397 1.12522 8.3502 1.49977 9.97919C1.87432 11.6082 2.85567 13.0332 4.244 13.964C3.20552 13.9361 2.18895 13.659 1.28 13.156V13.228C1.28174 14.7428 1.80533 16.2109 2.76263 17.3849C3.71994 18.5589 5.0525 19.3673 6.536 19.674C5.97477 19.8219 5.39637 19.8945 4.816 19.89C4.39918 19.8974 3.98277 19.8598 3.574 19.778C3.99788 21.08 4.81498 22.2187 5.91279 23.0371C7.0106 23.8555 8.33512 24.3135 9.704 24.348C7.38188 26.1641 4.51795 27.1492 1.57 27.146C1.032 27.146 0.516 27.122 0 27.056C2.99976 28.9891 6.49535 30.0116 10.064 30C22.136 30 28.736 20 28.736 11.332C28.736 11.042 28.726 10.762 28.712 10.484C30.0059 9.55795 31.1202 8.40374 32 7.07798Z" fill="#03A9F4"/>
</svg>
