<svg width="900" height="675" viewBox="0 0 900 675" fill="none" xmlns="http://www.w3.org/2000/svg">
<path d="M831.791 401.895C650.914 559.238 780.997 681.39 350.404 649.35C148.815 634.331 48.9712 481.106 25.8525 341.1C-2.81251 167.524 106.864 44.3025 408.802 44.3025C545.006 44.3025 667.89 3.20625 753.682 58.5338C873.27 135.686 920.779 324.495 831.791 401.895Z" fill="url(#paint0_linear_4_1745)"/>
<path d="M287.314 80.6738H752.265V545.625H287.314V80.6738Z" fill="url(#paint1_radial_4_1745)"/>
<path d="M778.511 204.964C782.059 204.964 784.935 202.088 784.935 198.54C784.935 194.992 782.059 192.116 778.511 192.116C774.963 192.116 772.087 194.992 772.087 198.54C772.087 202.088 774.963 204.964 778.511 204.964Z" fill="#B3EFFF"/>
<path d="M201.814 158.726C205.362 158.726 208.238 155.85 208.238 152.303C208.238 148.755 205.362 145.879 201.814 145.879C198.266 145.879 195.39 148.755 195.39 152.303C195.39 155.85 198.266 158.726 201.814 158.726Z" fill="#B3EFFF"/>
<path d="M617.4 149.512C639.36 171.574 675.022 171.664 697.084 149.715C719.145 127.766 719.235 92.0925 697.286 70.0313C675.337 47.97 639.664 47.88 617.602 69.8288C595.552 91.7775 595.462 127.451 617.4 149.512Z" fill="url(#paint2_linear_4_1745)"/>
<path d="M300.712 102.206C308.516 102.206 314.842 95.88 314.842 88.0763C314.842 80.2725 308.516 73.9463 300.712 73.9463C292.909 73.9463 286.583 80.2725 286.583 88.0763C286.583 95.88 292.909 102.206 300.712 102.206Z" fill="url(#paint3_linear_4_1745)"/>
<path opacity="0.6" d="M73.8675 241.121C79.7204 241.121 84.465 236.377 84.465 230.524C84.465 224.671 79.7204 219.926 73.8675 219.926C68.0147 219.926 63.27 224.671 63.27 230.524C63.27 236.377 68.0147 241.121 73.8675 241.121Z" fill="url(#paint4_linear_4_1745)"/>
<path d="M484.38 102.206C487.928 102.206 490.804 99.3303 490.804 95.7825C490.804 92.2348 487.928 89.3588 484.38 89.3588C480.832 89.3588 477.956 92.2348 477.956 95.7825C477.956 99.3303 480.832 102.206 484.38 102.206Z" fill="#125CAE"/>
<path d="M389.34 92.1938L390.69 94.9388L393.716 95.3775L391.522 97.5038L392.04 100.519L389.34 99.1013L386.64 100.519L387.146 97.5038L384.964 95.3775L387.99 94.9388L389.34 92.1938Z" fill="white"/>
<path opacity="0.4" d="M116.257 161.955L117.607 164.7L120.634 165.139L118.44 167.276L118.957 170.28L116.257 168.863L113.546 170.28L114.064 167.276L111.881 165.139L114.907 164.7L116.257 161.955Z" fill="white"/>
<path d="M68.085 325.732L69.435 328.477L72.4612 328.916L70.2787 331.054L70.785 334.057L68.085 332.64L65.385 334.057L65.9025 331.054L63.7087 328.916L66.735 328.477L68.085 325.732ZM838.024 270.36L839.374 273.105L842.4 273.544L840.217 275.681L840.724 278.685L838.024 277.268L835.324 278.685L835.841 275.681L833.648 273.544L836.674 273.105L838.024 270.36ZM795.589 123.862L796.939 126.607L799.965 127.046L797.782 129.184L798.3 132.187L795.589 130.77L792.889 132.187L793.406 129.184L791.212 127.046L794.239 126.607L795.589 123.862Z" fill="white"/>
<path d="M351.495 412.841L715.635 229.534L393.322 497.97" fill="url(#paint5_linear_4_1745)"/>
<path d="M549.326 338.006L715.635 229.534L515.07 330.896L549.326 338.006Z" fill="url(#paint6_linear_4_1745)"/>
<path d="M206.325 607.41C189.405 619.987 149.366 631.519 149.366 631.519C149.366 631.519 152.573 629.685 157.838 627.086C163.103 624.476 167.468 618.964 167.468 618.964C167.468 618.964 156.713 625.523 141.761 630.574C126.821 635.625 106.83 639.293 106.83 639.293C106.83 639.293 110.891 637.324 118.013 632.666C125.145 628.009 137.396 619.898 137.396 619.898C137.396 619.898 106.819 636.649 60.075 639.866C41.7825 641.126 11.8688 647.674 11.8688 647.674C11.8688 647.674 26.325 635.209 33.1988 628.02C44.1225 616.612 56.8238 598.264 66.78 586.676C81.6075 569.419 112.05 539.066 112.05 539.066L105.93 541.811C99.81 544.556 92.4075 547.504 92.4075 547.504C92.4075 547.504 123.019 518.321 145.8 509.524C171.473 499.613 205.729 504.135 205.729 504.135C205.729 504.135 208.744 518.783 219.949 537.75C231.536 557.347 241.065 565.335 241.065 565.335C241.065 565.335 232.245 588.15 206.325 607.41Z" fill="url(#paint7_linear_4_1745)"/>
<path d="M210.409 590.467C197.696 599.917 167.602 608.591 167.602 608.591C167.602 608.591 170.01 607.219 173.97 605.261C177.93 603.304 181.204 599.153 181.204 599.153C181.204 599.153 173.115 604.08 161.887 607.871C150.66 611.663 135.641 614.43 135.641 614.43C135.641 614.43 138.69 612.945 144.045 609.446C149.4 605.947 158.614 599.85 158.614 599.85C158.614 599.85 135.63 612.439 100.496 614.857C86.7487 615.802 64.2712 620.719 64.2712 620.719C64.2712 620.719 75.1387 611.347 80.3025 605.947C88.515 597.375 98.055 583.594 105.547 574.875C116.696 561.904 139.567 539.1 139.567 539.1L134.966 541.159C130.365 543.217 124.796 545.434 124.796 545.434C124.796 545.434 147.802 523.507 164.925 516.892C184.219 509.445 209.97 512.842 209.97 512.842C209.97 512.842 212.231 523.856 220.657 538.099C229.365 552.836 236.531 558.821 236.531 558.821C236.531 558.821 229.882 575.989 210.409 590.467Z" fill="url(#paint8_linear_4_1745)"/>
<path d="M229.669 471.15C231.604 468.236 285.581 410.389 351.191 376.448C416.801 342.506 446.535 339.604 446.535 339.604C446.535 339.604 463.016 351.236 479.497 381.623C495.979 412.009 500.827 424.283 499.534 428.164C498.24 432.045 434.25 501.21 364.106 529.976C293.974 558.743 285.896 560.363 285.896 560.363C285.896 560.363 277.166 559.395 267.154 544.208C257.141 529.02 233.865 491.198 231.277 482.794C228.69 474.39 229.669 471.15 229.669 471.15Z" fill="url(#paint9_linear_4_1745)"/>
<path d="M552.544 336.049C548.663 330.559 543.499 329.58 512.145 329.906C480.791 330.232 448.155 340.571 448.155 340.571L448.526 341.179C453.386 345.24 466.436 357.536 479.509 381.622C491.918 404.494 497.723 417.105 499.298 423.596L500.524 425.576L506.014 420.401C511.504 415.226 534.128 381.937 542.531 366.424C550.935 350.921 556.425 341.539 552.544 336.049Z" fill="url(#paint10_linear_4_1745)"/>
<path d="M288.495 559.384L252.619 635.017C252.619 635.017 287.843 620.471 328.894 593.325C369.945 566.179 373.174 561.971 373.174 561.971L384.165 520.605C384.154 520.605 318.229 550.98 288.495 559.384Z" fill="url(#paint11_linear_4_1745)"/>
<path d="M310.14 401.659L272.329 393.908C272.329 393.908 239.04 407.801 211.241 425.903C183.443 444.004 156.296 464.366 156.296 464.366L232.245 468.248C232.256 468.236 285.908 413.291 310.14 401.659Z" fill="url(#paint12_linear_4_1745)"/>
<path d="M267.154 544.196C257.13 529.009 233.865 491.186 231.278 482.783C230.569 480.499 230.141 478.609 229.871 477.045L210.274 491.501C210.274 491.501 208.98 505.721 226.429 532.226C243.878 558.731 252.934 567.776 257.13 567.45C261.326 567.124 279.428 557.753 279.428 557.753L279.056 557.145C275.783 554.861 271.598 550.924 267.154 544.196Z" fill="url(#paint13_linear_4_1745)"/>
<path d="M211.567 499.916L205.751 504.113C205.751 504.113 205.11 513.158 218.351 535.14C231.604 557.123 239.681 565.2 243.236 565.526C246.791 565.853 249.379 562.613 249.379 562.613C249.379 562.613 218.351 528.03 211.567 499.916Z" fill="url(#paint14_linear_4_1745)"/>
<path d="M333.743 452.081L304.65 462.105C304.65 462.105 259.549 487.125 244.856 496.046C226.429 507.229 172.463 542.914 172.463 542.914L174.724 547.763L308.531 467.933L337.939 456.615L333.743 452.081Z" fill="url(#paint15_linear_4_1745)"/>
<path d="M174.724 547.751L248.411 513.81C248.411 513.81 276.716 497.633 285.908 491.828C299.194 483.446 337.939 456.604 337.939 456.604L307.238 468.236L174.724 547.751Z" fill="url(#paint16_linear_4_1745)"/>
<path d="M466.256 178.324L473.366 175.41C473.366 175.41 475.155 176.231 476.921 180.259C479.182 185.434 479.509 188.989 479.509 188.989L472.399 192.87C472.387 192.87 468.832 183.172 466.256 178.324Z" fill="black"/>
<path d="M400.961 242.325L473.681 198.371C473.681 198.371 474.548 191.475 471.96 185.445C469.373 179.415 466.358 177.682 466.358 177.682L372.848 220.027" fill="url(#paint17_linear_4_1745)"/>
<path d="M368.1 219.802C368.1 219.802 354.094 235.204 350.865 252.011C347.636 268.819 347.951 296.932 346.984 306.315C346.016 315.686 341.168 333.146 338.254 341.224C335.34 349.301 334.373 360.619 334.373 360.619C334.373 360.619 354.735 362.88 377.359 360.292C399.983 357.705 408.06 354.802 408.06 354.802C408.06 354.802 406.766 328.297 404.393 319.68C402.019 311.062 401.378 308.047 401.378 308.047C401.378 308.047 402.244 304.819 404.393 299.002C406.553 293.186 417.319 272.497 415.598 264.532C413.876 256.556 409.568 244.924 405.9 241.042C402.233 237.161 400.725 236.52 400.725 236.52C400.725 236.52 392.321 224.449 386.505 218.846C380.689 213.244 373.579 213.885 373.579 213.885L368.1 219.802Z" fill="url(#paint18_linear_4_1745)"/>
<path opacity="0.5" d="M373.5 271.215C373.5 271.215 377.269 282.206 383.524 289.53C389.768 296.854 402.592 304.402 402.592 304.402L404.415 299.002L374.366 271.226" fill="url(#paint19_linear_4_1745)"/>
<path d="M397.721 232.301C394.751 228.274 390.139 222.311 386.527 218.835C380.711 213.233 373.601 213.874 373.601 213.874L368.179 219.724C372.071 222.109 381.679 223.875 387.821 227.452C391.556 229.624 394.965 231.199 397.721 232.301Z" fill="url(#paint20_linear_4_1745)"/>
<path d="M371.88 317.092C371.88 317.092 378.776 316.879 388.688 314.505C398.599 312.131 400.32 310.624 400.32 310.624L398.16 319.455C398.16 319.455 393.199 322.897 386.089 323.55C378.979 324.191 371.216 324.416 371.216 324.416L371.88 317.092Z" fill="url(#paint21_linear_4_1745)"/>
<path d="M340.853 361.046C340.853 361.046 342.788 371.385 349.47 375.266C356.153 379.148 362.61 382.163 362.61 382.163L393.21 405.439L344.734 425.048C344.734 425.048 350.978 439.695 356.153 447.03C361.328 454.354 364.984 457.807 364.984 457.155C364.984 456.502 395.584 442.283 411.953 436.039C428.333 429.795 436.511 426.128 439.538 419.884C442.553 413.64 436.095 406.53 433.069 400.928C430.054 395.325 409.579 366.458 405.923 362.363C402.266 358.268 399.24 356.974 399.24 356.974C399.24 356.974 365.625 363.42 340.853 361.046Z" fill="black"/>
<path d="M344.722 425.036L331.582 424.823L316.282 431.719L322.751 446.805L325.766 444.87C325.766 444.87 327.274 459.304 331.582 469.001C335.891 478.699 345.375 486.889 347.524 486.675C349.684 486.461 351.405 483.008 351.405 483.008C351.405 483.008 343.867 470.295 345.375 463.185C346.882 456.075 350.111 444.656 350.111 444.656L352.485 442.069C352.485 442.058 345.161 428.704 344.722 425.036Z" fill="url(#paint22_linear_4_1745)"/>
<path d="M344.723 425.036L334.8 424.879C335.295 427.32 336.195 431.1 337.185 432.371C338.535 434.115 346.478 436.894 350.584 444.139L352.485 442.069C352.485 442.058 345.161 428.704 344.723 425.036Z" fill="white"/>
<path d="M347.524 486.664C348.109 486.607 348.66 486.304 349.155 485.91C345.026 483.199 340.684 478.136 336.532 472.658C330.502 464.681 330.064 448.312 329.209 444.859C328.489 441.99 324.045 432.113 322.571 428.872L316.282 431.707L322.751 446.794L325.766 444.859C325.766 444.859 327.274 459.293 331.582 468.99C335.891 478.688 345.375 486.878 347.524 486.664ZM382.702 214.526C382.702 214.526 382.061 209.036 381.735 206.764C381.409 204.502 382.702 192.87 389.002 188.179C395.302 183.488 406.294 183.004 412.92 186.244C419.546 189.473 425.52 193.196 426.814 195.458C428.107 197.719 428.749 201.926 428.265 203.22C427.781 204.514 426.971 204.514 426.971 204.514L420.187 198.855C420.187 198.855 415.181 204.03 415.012 205.324C414.855 206.617 413.235 213.885 413.235 213.885C413.235 213.885 410.164 213.728 410.164 213.244C410.164 212.76 407.092 204.199 404.831 204.514C402.57 204.84 399.555 204.188 398.205 209.363C397.822 210.848 397.069 214.537 397.069 214.537L387.045 218.576L382.702 214.526Z" fill="black"/>
<path d="M420.199 198.855C420.199 198.855 415.193 204.03 415.024 205.324C414.866 206.617 413.246 213.885 413.246 213.885C413.246 213.885 410.175 213.727 410.175 213.244C410.175 212.76 407.104 204.199 404.843 204.514C402.581 204.84 399.566 204.187 398.216 209.362C397.834 210.847 397.08 214.537 397.08 214.537L387.056 218.576L400.309 236.407L402.896 235.327C402.896 235.327 413.449 238.882 414.428 238.77C415.395 238.657 416.475 234.135 416.475 233.707C416.475 233.28 418.309 232.841 419.063 232.627C419.816 232.414 418.849 230.794 418.849 230.794L420.683 230.467L421.324 226.586C421.324 226.586 422.719 227.227 423.158 227.227C423.585 227.227 425.318 226.474 425.318 226.474L423.596 214.189L425.531 212.355L426.285 204.165L426.094 203.737L420.199 198.855Z" fill="url(#paint23_linear_4_1745)"/>
<path d="M373.601 270.113C373.601 270.113 376.402 280.451 401.614 297.473C426.825 314.494 443.632 324.619 449.449 327.859C455.265 331.087 464.096 339.064 464.096 339.064C464.096 339.064 469.057 333.461 471.847 328.286C474.649 323.111 475.29 320.524 475.29 320.524C475.29 320.524 444.262 299.194 434.992 291.87C425.722 284.546 413.235 269.674 411.941 266.659C410.647 263.644 410.434 243.608 401.164 238.433C391.894 233.258 381.555 238.433 377.032 249.424C372.51 260.415 373.601 270.113 373.601 270.113Z" fill="url(#paint24_linear_4_1745)"/>
<path d="M467.055 334.924L474.817 338.152C474.817 338.152 477.889 335.407 479.509 330.716C481.129 326.025 481.77 323.932 481.77 323.932L475.301 320.535C475.301 320.535 469.969 332.494 467.055 334.924Z" fill="black"/>
<path d="M481.77 325.226C481.77 325.226 492.761 323.932 495.506 323.932C498.251 323.932 503.584 325.552 508.275 327.645C512.966 329.737 516.521 332.978 516.521 333.788C516.521 334.598 515.711 335.891 513.124 335.408C510.536 334.924 500.029 332.662 498.251 332.82C496.474 332.977 487.913 337.511 485.156 337.511C482.4 337.511 477.394 335.576 477.394 335.576C477.394 335.576 481.77 327.645 481.77 325.226Z" fill="url(#paint25_linear_4_1745)"/>
<path d="M473.366 175.421C473.366 175.421 478.541 172.946 481.342 171.439C484.144 169.931 490.387 166.703 495.135 164.756C499.871 162.821 506.126 159.368 506.767 161.089C507.409 162.81 494.482 170.359 494.482 170.359C494.482 170.359 498.791 175.534 498.791 176.389C498.791 177.255 494.269 184.793 494.269 184.793C494.269 184.793 490.725 186.075 489.532 185.873C488.34 185.67 485.437 183.285 485.437 183.285L478.969 185.22C478.969 185.22 475.515 177.244 473.366 175.421Z" fill="url(#paint26_linear_4_1745)"/>
<path d="M263.993 139.973C265.223 139.973 266.22 138.975 266.22 137.745C266.22 136.515 265.223 135.518 263.993 135.518C262.762 135.518 261.765 136.515 261.765 137.745C261.765 138.975 262.762 139.973 263.993 139.973Z" fill="white"/>
<path d="M344.824 204.548C344.824 205.155 344.329 205.65 343.721 205.65C343.114 205.65 342.619 205.155 342.619 204.548C342.619 203.94 343.114 203.445 343.721 203.445C344.329 203.445 344.824 203.94 344.824 204.548ZM213.908 223.357C213.915 223.757 213.843 224.154 213.696 224.525C213.549 224.896 213.329 225.234 213.049 225.519C212.77 225.804 212.436 226.031 212.068 226.185C211.7 226.34 211.304 226.42 210.905 226.42C210.506 226.42 210.11 226.34 209.742 226.186C209.374 226.031 209.04 225.805 208.76 225.52C208.481 225.235 208.261 224.897 208.113 224.526C207.966 224.155 207.894 223.758 207.901 223.359C207.916 222.572 208.239 221.823 208.801 221.272C209.362 220.721 210.117 220.413 210.904 220.412C211.69 220.412 212.446 220.721 213.007 221.271C213.569 221.822 213.892 222.571 213.908 223.357ZM133.121 209.374C133.121 209.987 132.878 210.575 132.444 211.009C132.011 211.442 131.423 211.686 130.809 211.686C130.196 211.686 129.608 211.442 129.175 211.009C128.741 210.575 128.498 209.987 128.498 209.374C128.498 208.091 129.533 207.056 130.815 207.056C132.086 207.068 133.121 208.103 133.121 209.374ZM335.07 143.64C335.07 144.799 334.125 145.744 332.966 145.744C331.808 145.744 330.863 144.799 330.863 143.64C330.863 142.481 331.808 141.536 332.966 141.536C334.136 141.536 335.07 142.481 335.07 143.64Z" fill="white"/>
<path d="M735.728 123.255C737.25 123.255 738.484 122.021 738.484 120.499C738.484 118.977 737.25 117.742 735.728 117.742C734.205 117.742 732.971 118.977 732.971 120.499C732.971 122.021 734.205 123.255 735.728 123.255Z" fill="white"/>
<path d="M835.852 203.254C835.852 204.007 835.245 204.615 834.491 204.615C833.737 204.615 833.13 204.007 833.13 203.254C833.13 202.5 833.737 201.893 834.491 201.893C835.245 201.893 835.852 202.5 835.852 203.254ZM673.672 226.553C673.672 228.611 672.007 230.276 669.949 230.276C667.89 230.276 666.225 228.611 666.225 226.553C666.225 224.494 667.89 222.829 669.949 222.829C672.007 222.829 673.672 224.494 673.672 226.553ZM573.604 209.228C573.604 210.814 572.321 212.096 570.735 212.096C569.149 212.096 567.866 210.814 567.866 209.228C567.866 207.641 569.149 206.359 570.735 206.359C571.495 206.362 572.223 206.665 572.76 207.202C573.298 207.74 573.601 208.468 573.604 209.228ZM823.781 127.8C823.781 129.24 822.611 130.41 821.171 130.41C819.731 130.41 818.561 129.24 818.561 127.8C818.561 126.36 819.731 125.19 821.171 125.19C822.611 125.19 823.781 126.36 823.781 127.8Z" fill="white"/>
<path d="M615.296 454.849C616.819 454.849 618.053 453.615 618.053 452.092C618.053 450.57 616.819 449.336 615.296 449.336C613.774 449.336 612.54 450.57 612.54 452.092C612.54 453.615 613.774 454.849 615.296 454.849Z" fill="white"/>
<path d="M715.433 534.848C715.433 535.601 714.825 536.209 714.071 536.209C713.318 536.209 712.71 535.601 712.71 534.848C712.71 534.094 713.318 533.486 714.071 533.486C714.825 533.475 715.433 534.094 715.433 534.848ZM553.253 558.146C553.253 560.205 551.588 561.87 549.529 561.87C547.47 561.87 545.805 560.205 545.805 558.146C545.805 556.088 547.47 554.423 549.529 554.423C551.588 554.423 553.253 556.088 553.253 558.146ZM453.184 540.821C453.184 542.408 451.901 543.69 450.315 543.69C448.729 543.69 447.446 542.408 447.446 540.821C447.446 539.235 448.729 537.952 450.315 537.952C451.901 537.952 453.184 539.235 453.184 540.821ZM703.361 459.394C703.361 460.834 702.191 462.004 700.751 462.004C699.311 462.004 698.141 460.834 698.141 459.394C698.141 457.954 699.311 456.784 700.751 456.784C702.191 456.784 703.361 457.954 703.361 459.394Z" fill="white"/>
<path d="M502.796 581.197C503.623 581.197 504.293 580.528 504.293 579.701C504.293 578.875 503.623 578.205 502.796 578.205C501.97 578.205 501.3 578.875 501.3 579.701C501.3 580.528 501.97 581.197 502.796 581.197Z" fill="white"/>
<path d="M557.235 624.701C557.235 624.898 557.157 625.087 557.018 625.226C556.878 625.366 556.689 625.444 556.493 625.444C556.296 625.444 556.107 625.366 555.967 625.226C555.828 625.087 555.75 624.898 555.75 624.701C555.75 624.285 556.076 623.959 556.493 623.959C556.909 623.959 557.235 624.285 557.235 624.701ZM469.058 637.369C469.058 637.906 468.844 638.421 468.464 638.801C468.085 639.18 467.57 639.394 467.033 639.394C466.495 639.394 465.98 639.18 465.601 638.801C465.221 638.421 465.008 637.906 465.008 637.369C465.008 636.244 465.919 635.344 467.033 635.344C468.146 635.344 469.058 636.244 469.058 637.369ZM414.641 627.941C414.641 628.796 413.944 629.494 413.089 629.494C412.234 629.494 411.536 628.796 411.536 627.941C411.536 627.086 412.234 626.389 413.089 626.389C413.944 626.389 414.641 627.086 414.641 627.941ZM550.676 583.673C550.676 584.46 550.046 585.09 549.259 585.09C548.471 585.09 547.841 584.46 547.841 583.673C547.841 582.885 548.471 582.255 549.259 582.255C550.035 582.255 550.676 582.885 550.676 583.673Z" fill="white"/>
<path d="M183.746 334.991C184.573 334.991 185.243 334.321 185.243 333.495C185.243 332.669 184.573 331.999 183.746 331.999C182.92 331.999 182.25 332.669 182.25 333.495C182.25 334.321 182.92 334.991 183.746 334.991Z" fill="white"/>
<path d="M238.196 378.495C238.2 378.595 238.184 378.694 238.149 378.788C238.113 378.881 238.059 378.967 237.99 379.039C237.921 379.111 237.838 379.168 237.746 379.207C237.654 379.247 237.555 379.267 237.455 379.267C237.355 379.267 237.256 379.247 237.164 379.208C237.072 379.169 236.989 379.112 236.92 379.04C236.85 378.968 236.796 378.882 236.761 378.789C236.725 378.696 236.709 378.596 236.712 378.496C236.72 378.304 236.801 378.123 236.939 377.99C237.077 377.857 237.262 377.782 237.454 377.782C237.646 377.782 237.83 377.856 237.969 377.989C238.107 378.122 238.189 378.303 238.196 378.495ZM150.008 391.162C150.008 391.7 149.794 392.215 149.414 392.594C149.035 392.974 148.52 393.187 147.983 393.187C147.445 393.187 146.93 392.974 146.551 392.594C146.171 392.215 145.958 391.7 145.958 391.162C145.958 390.625 146.171 390.11 146.551 389.731C146.93 389.351 147.445 389.137 147.983 389.137C148.52 389.137 149.035 389.351 149.414 389.731C149.794 390.11 150.008 390.625 150.008 391.162ZM95.6026 381.746C95.6026 382.601 94.9051 383.299 94.0501 383.299C93.1951 383.299 92.4976 382.601 92.4976 381.746C92.4976 380.891 93.1951 380.194 94.0501 380.194C94.9051 380.194 95.6026 380.88 95.6026 381.746ZM231.626 337.466C231.626 338.254 230.996 338.884 230.209 338.884C229.421 338.884 228.791 338.254 228.791 337.466C228.791 336.679 229.421 336.049 230.209 336.049C230.996 336.049 231.626 336.69 231.626 337.466Z" fill="white"/>
<path d="M750.218 300.6C751.044 300.6 751.714 299.93 751.714 299.104C751.714 298.277 751.044 297.608 750.218 297.608C749.391 297.608 748.721 298.277 748.721 299.104C748.721 299.93 749.391 300.6 750.218 300.6Z" fill="white"/>
<path d="M804.668 344.104C804.668 344.509 804.341 344.846 803.925 344.846C803.509 344.846 803.182 344.52 803.182 344.104C803.182 343.699 803.509 343.361 803.925 343.361C804.341 343.361 804.668 343.688 804.668 344.104ZM716.479 356.771C716.479 357.308 716.265 357.823 715.886 358.203C715.506 358.583 714.991 358.796 714.454 358.796C713.917 358.796 713.402 358.583 713.022 358.203C712.642 357.823 712.429 357.308 712.429 356.771C712.429 356.234 712.642 355.719 713.022 355.339C713.402 354.96 713.917 354.746 714.454 354.746C714.991 354.746 715.506 354.96 715.886 355.339C716.265 355.719 716.479 356.234 716.479 356.771ZM662.074 347.355C662.074 348.21 661.376 348.908 660.521 348.908C659.666 348.908 658.969 348.21 658.969 347.355C658.969 346.5 659.666 345.803 660.521 345.803C661.376 345.791 662.074 346.489 662.074 347.355ZM798.097 303.075C798.097 303.863 797.467 304.493 796.68 304.493C795.892 304.493 795.263 303.863 795.263 303.075C795.263 302.288 795.892 301.658 796.68 301.658C797.467 301.658 798.097 302.299 798.097 303.075Z" fill="white"/>
<path d="M586.283 201.386C587.109 201.386 587.779 200.716 587.779 199.89C587.779 199.064 587.109 198.394 586.283 198.394C585.456 198.394 584.786 199.064 584.786 199.89C584.786 200.716 585.456 201.386 586.283 201.386Z" fill="white"/>
<path d="M640.732 244.89C640.732 245.295 640.406 245.632 639.99 245.632C639.574 245.632 639.247 245.306 639.247 244.89C639.247 244.485 639.574 244.147 639.99 244.147C640.406 244.147 640.732 244.474 640.732 244.89ZM552.544 257.557C552.544 258.095 552.33 258.61 551.951 258.989C551.571 259.369 551.056 259.582 550.519 259.582C549.982 259.582 549.467 259.369 549.087 258.989C548.707 258.61 548.494 258.095 548.494 257.557C548.494 257.02 548.707 256.505 549.087 256.126C549.467 255.746 549.982 255.532 550.519 255.532C551.056 255.532 551.571 255.746 551.951 256.126C552.33 256.505 552.544 257.02 552.544 257.557ZM498.139 248.141C498.139 248.996 497.441 249.694 496.586 249.694C495.731 249.694 495.034 248.996 495.034 248.141C495.034 247.286 495.731 246.589 496.586 246.589C497.441 246.577 498.139 247.275 498.139 248.141ZM634.162 203.861C634.162 204.649 633.532 205.279 632.745 205.279C631.957 205.279 631.327 204.649 631.327 203.861C631.327 203.074 631.957 202.444 632.745 202.444C633.532 202.444 634.162 203.074 634.162 203.861Z" fill="white"/>
<path opacity="0.6" d="M722.07 84.2175C726.379 84.2175 730.406 85.3987 733.86 87.4575C734.681 75.4425 744.682 65.9587 756.9 65.9587C759.881 65.9587 762.727 66.5325 765.337 67.5562C768.667 56.4187 778.984 48.2962 791.201 48.2962C806.119 48.2962 818.201 60.39 818.201 75.2962C818.201 75.6787 818.19 76.0613 818.167 76.4325H818.201C833.107 76.4325 845.201 88.5263 845.201 103.433C845.201 118.35 833.107 130.433 818.201 130.433C817.267 130.433 816.345 130.387 815.445 130.298H724.579C723.746 130.387 722.914 130.433 722.059 130.433C709.301 130.433 698.951 120.083 698.951 107.325C698.962 94.5675 709.312 84.2175 722.07 84.2175Z" fill="url(#paint27_linear_4_1745)"/>
<path opacity="0.3" d="M607.196 114.806C604.733 114.806 602.415 115.481 600.446 116.663C599.974 109.778 594.248 104.344 587.25 104.344C585.743 104.344 584.291 104.614 582.941 105.086C580.995 98.7863 575.111 94.1963 568.17 94.1963C567.653 94.1963 567.135 94.23 566.629 94.275C560.138 94.68 554.738 99.0788 552.859 105.053C551.498 104.58 550.046 104.31 548.528 104.31C541.53 104.31 535.804 109.744 535.331 116.629C533.291 115.41 530.958 114.769 528.581 114.773C521.269 114.773 515.351 120.701 515.351 128.003C515.351 135.315 521.28 141.233 528.581 141.233C529.065 141.233 529.549 141.199 530.021 141.154H550.339C550.935 141.221 551.531 141.266 552.15 141.266C552.679 141.266 553.208 141.244 553.725 141.188H582.739C583.031 141.199 583.324 141.233 583.628 141.233C583.931 141.233 584.224 141.199 584.516 141.188H605.756C606.229 141.244 606.713 141.266 607.196 141.266C614.509 141.266 620.426 135.338 620.426 128.036C620.426 120.735 614.498 114.806 607.196 114.806Z" fill="url(#paint28_linear_4_1745)"/>
<defs>
<linearGradient id="paint0_linear_4_1745" x1="261.955" y1="34.9774" x2="654.399" y2="598.05" gradientUnits="userSpaceOnUse">
<stop stop-color="#270036"/>
<stop offset="0.594" stop-color="#4F008B"/>
<stop offset="1" stop-color="#4C24B1"/>
</linearGradient>
<radialGradient id="paint1_radial_4_1745" cx="0" cy="0" r="1" gradientUnits="userSpaceOnUse" gradientTransform="translate(519.796 313.155) scale(232.477 232.477)">
<stop stop-color="#3E82BF"/>
<stop offset="1" stop-color="#3E82BF" stop-opacity="0"/>
</radialGradient>
<linearGradient id="paint2_linear_4_1745" x1="667.983" y1="56.9214" x2="645.763" y2="167.407" gradientUnits="userSpaceOnUse">
<stop stop-color="#88CFDA"/>
<stop offset="0.008" stop-color="#89CFD9"/>
<stop offset="0.478" stop-color="#C8D9BB"/>
<stop offset="0.822" stop-color="#F0DFA7"/>
<stop offset="1" stop-color="#FFE1A0"/>
</linearGradient>
<linearGradient id="paint3_linear_4_1745" x1="286.588" y1="88.0785" x2="314.845" y2="88.0785" gradientUnits="userSpaceOnUse">
<stop stop-color="#7633FF"/>
<stop offset="0.159" stop-color="#7137FF"/>
<stop offset="0.353" stop-color="#6243FF"/>
<stop offset="0.568" stop-color="#4957FF"/>
<stop offset="0.794" stop-color="#2672FF"/>
<stop offset="1" stop-color="#0090FF"/>
</linearGradient>
<linearGradient id="paint4_linear_4_1745" x1="63.2689" y1="230.519" x2="84.4616" y2="230.519" gradientUnits="userSpaceOnUse">
<stop stop-color="#7633FF"/>
<stop offset="0.159" stop-color="#7137FF"/>
<stop offset="0.353" stop-color="#6243FF"/>
<stop offset="0.568" stop-color="#4957FF"/>
<stop offset="0.794" stop-color="#2672FF"/>
<stop offset="1" stop-color="#0090FF"/>
</linearGradient>
<linearGradient id="paint5_linear_4_1745" x1="774.921" y1="212.071" x2="348.25" y2="470.014" gradientUnits="userSpaceOnUse">
<stop stop-color="#1DACFF"/>
<stop offset="0.136" stop-color="#1CA9FB"/>
<stop offset="0.274" stop-color="#1B9FEF"/>
<stop offset="0.414" stop-color="#188EDA"/>
<stop offset="0.555" stop-color="#1476BD"/>
<stop offset="0.696" stop-color="#0F5898"/>
<stop offset="0.839" stop-color="#08326B"/>
<stop offset="0.979" stop-color="#010737"/>
<stop offset="1" stop-color="#00002E"/>
</linearGradient>
<linearGradient id="paint6_linear_4_1745" x1="729.839" y1="215.238" x2="485.475" y2="362.635" gradientUnits="userSpaceOnUse">
<stop stop-color="#1DACFF"/>
<stop offset="0.136" stop-color="#1CA9FB"/>
<stop offset="0.274" stop-color="#1B9FEF"/>
<stop offset="0.414" stop-color="#188EDA"/>
<stop offset="0.555" stop-color="#1476BD"/>
<stop offset="0.696" stop-color="#0F5898"/>
<stop offset="0.839" stop-color="#08326B"/>
<stop offset="0.979" stop-color="#010737"/>
<stop offset="1" stop-color="#00002E"/>
</linearGradient>
<linearGradient id="paint7_linear_4_1745" x1="11.8868" y1="575.37" x2="241.082" y2="575.37" gradientUnits="userSpaceOnUse">
<stop stop-color="#88AEDA"/>
<stop offset="0.042" stop-color="#8EADD4"/>
<stop offset="0.496" stop-color="#CBA895"/>
<stop offset="0.828" stop-color="#F1A56D"/>
<stop offset="1" stop-color="#FFA45E"/>
</linearGradient>
<linearGradient id="paint8_linear_4_1745" x1="64.2757" y1="566.383" x2="236.522" y2="566.383" gradientUnits="userSpaceOnUse">
<stop stop-color="#88CFDA"/>
<stop offset="0.042" stop-color="#8ED0D4"/>
<stop offset="0.496" stop-color="#CBD995"/>
<stop offset="0.828" stop-color="#F1DF6D"/>
<stop offset="1" stop-color="#FFE15E"/>
</linearGradient>
<linearGradient id="paint9_linear_4_1745" x1="411.218" y1="510.54" x2="205.026" y2="241.947" gradientUnits="userSpaceOnUse">
<stop stop-color="#A1BAFF"/>
<stop offset="0.488" stop-color="white"/>
</linearGradient>
<linearGradient id="paint10_linear_4_1745" x1="537.342" y1="398.655" x2="497.577" y2="333.775" gradientUnits="userSpaceOnUse">
<stop stop-color="#3D00BA"/>
<stop offset="0.745" stop-color="#CE00FF"/>
</linearGradient>
<linearGradient id="paint11_linear_4_1745" x1="252.614" y1="577.807" x2="384.158" y2="577.807" gradientUnits="userSpaceOnUse">
<stop stop-color="#3D00BA"/>
<stop offset="0.745" stop-color="#CE00FF"/>
</linearGradient>
<linearGradient id="paint12_linear_4_1745" x1="282.525" y1="452.41" x2="203.663" y2="421.381" gradientUnits="userSpaceOnUse">
<stop stop-color="#3D00BA"/>
<stop offset="0.745" stop-color="#CE00FF"/>
</linearGradient>
<linearGradient id="paint13_linear_4_1745" x1="269.994" y1="568.148" x2="215.699" y2="485.735" gradientUnits="userSpaceOnUse">
<stop stop-color="#270036"/>
<stop offset="0.438" stop-color="#4F008B"/>
<stop offset="1" stop-color="#4C24B1"/>
</linearGradient>
<linearGradient id="paint14_linear_4_1745" x1="206.221" y1="500.55" x2="245.005" y2="568.419" gradientUnits="userSpaceOnUse">
<stop stop-color="#7633FF"/>
<stop offset="0.159" stop-color="#7137FF"/>
<stop offset="0.353" stop-color="#6243FF"/>
<stop offset="0.568" stop-color="#4957FF"/>
<stop offset="0.794" stop-color="#2672FF"/>
<stop offset="1" stop-color="#0090FF"/>
</linearGradient>
<linearGradient id="paint15_linear_4_1745" x1="348.075" y1="446.993" x2="179.371" y2="537.162" gradientUnits="userSpaceOnUse">
<stop stop-color="#7633FF"/>
<stop offset="0.132" stop-color="#6342FF"/>
<stop offset="0.534" stop-color="#2E6CFF"/>
<stop offset="0.835" stop-color="#0D86FF"/>
<stop offset="1" stop-color="#0090FF"/>
</linearGradient>
<linearGradient id="paint16_linear_4_1745" x1="174.722" y1="502.178" x2="337.94" y2="502.178" gradientUnits="userSpaceOnUse">
<stop stop-color="#3D00BA"/>
<stop offset="0.745" stop-color="#CE00FF"/>
</linearGradient>
<linearGradient id="paint17_linear_4_1745" x1="372.845" y1="210" x2="473.823" y2="210" gradientUnits="userSpaceOnUse">
<stop stop-color="#7633FF"/>
<stop offset="0.159" stop-color="#7137FF"/>
<stop offset="0.353" stop-color="#6243FF"/>
<stop offset="0.568" stop-color="#4957FF"/>
<stop offset="0.794" stop-color="#2672FF"/>
<stop offset="1" stop-color="#0090FF"/>
</linearGradient>
<linearGradient id="paint18_linear_4_1745" x1="358.469" y1="371.369" x2="408.888" y2="207.182" gradientUnits="userSpaceOnUse">
<stop stop-color="#7633FF"/>
<stop offset="0.111" stop-color="#6640FF"/>
<stop offset="0.524" stop-color="#2F6BFF"/>
<stop offset="0.833" stop-color="#0D86FF"/>
<stop offset="1" stop-color="#0090FF"/>
</linearGradient>
<linearGradient id="paint19_linear_4_1745" x1="373.505" y1="287.803" x2="404.412" y2="287.803" gradientUnits="userSpaceOnUse">
<stop stop-color="#7700BB"/>
<stop offset="1"/>
</linearGradient>
<linearGradient id="paint20_linear_4_1745" x1="368.178" y1="223.081" x2="397.721" y2="223.081" gradientUnits="userSpaceOnUse">
<stop stop-color="#7633FF"/>
<stop offset="0.159" stop-color="#7137FF"/>
<stop offset="0.353" stop-color="#6243FF"/>
<stop offset="0.568" stop-color="#4957FF"/>
<stop offset="0.794" stop-color="#2672FF"/>
<stop offset="1" stop-color="#0090FF"/>
</linearGradient>
<linearGradient id="paint21_linear_4_1745" x1="371.23" y1="317.52" x2="400.318" y2="317.52" gradientUnits="userSpaceOnUse">
<stop stop-color="#7700BB"/>
<stop offset="1"/>
</linearGradient>
<linearGradient id="paint22_linear_4_1745" x1="316.285" y1="455.745" x2="352.484" y2="455.745" gradientUnits="userSpaceOnUse">
<stop stop-color="#270036"/>
<stop offset="0.594" stop-color="#4F008B"/>
<stop offset="1" stop-color="#4C24B1"/>
</linearGradient>
<linearGradient id="paint23_linear_4_1745" x1="387.066" y1="218.809" x2="426.282" y2="218.809" gradientUnits="userSpaceOnUse">
<stop stop-color="#A1BAFF"/>
<stop offset="0.488" stop-color="white"/>
</linearGradient>
<linearGradient id="paint24_linear_4_1745" x1="373.488" y1="287.746" x2="475.301" y2="287.746" gradientUnits="userSpaceOnUse">
<stop stop-color="#7633FF"/>
<stop offset="0.159" stop-color="#7137FF"/>
<stop offset="0.353" stop-color="#6243FF"/>
<stop offset="0.568" stop-color="#4957FF"/>
<stop offset="0.794" stop-color="#2672FF"/>
<stop offset="1" stop-color="#0090FF"/>
</linearGradient>
<linearGradient id="paint25_linear_4_1745" x1="477.402" y1="330.717" x2="516.51" y2="330.717" gradientUnits="userSpaceOnUse">
<stop stop-color="#A1BAFF"/>
<stop offset="0.488" stop-color="white"/>
</linearGradient>
<linearGradient id="paint26_linear_4_1745" x1="473.362" y1="173.256" x2="506.783" y2="173.256" gradientUnits="userSpaceOnUse">
<stop stop-color="#A1BAFF"/>
<stop offset="0.488" stop-color="white"/>
</linearGradient>
<linearGradient id="paint27_linear_4_1745" x1="698.965" y1="89.3632" x2="845.217" y2="89.3632" gradientUnits="userSpaceOnUse">
<stop stop-color="#A1BAFF"/>
<stop offset="0.089" stop-color="#ACC2FF"/>
<stop offset="0.499" stop-color="#D9E3FF"/>
<stop offset="0.816" stop-color="#F5F7FF"/>
<stop offset="1" stop-color="white"/>
</linearGradient>
<linearGradient id="paint28_linear_4_1745" x1="515.331" y1="117.736" x2="620.426" y2="117.736" gradientUnits="userSpaceOnUse">
<stop stop-color="#A1BAFF"/>
<stop offset="0.089" stop-color="#ACC2FF"/>
<stop offset="0.499" stop-color="#D9E3FF"/>
<stop offset="0.816" stop-color="#F5F7FF"/>
<stop offset="1" stop-color="white"/>
</linearGradient>
</defs>
</svg>
